# xmcd
#
# Track frame offsets:
#	150
#	9753
#	28463
#	38014
#	55691
#	67340
#	83651
#	98863
#	119571
#	133158
#	152827
#	171761
#	189311
#	199169
#	214517
#	227958
#	250610
#
# Disc length: 3562 seconds
# Revision: 0
# Processed by: cddbd v1.5.2PL0 Copyright (c) Steve Scherf et al.
# Submitted via: dBpowerAMP V12.0
#
DISCID=e70de811
DTITLE=Various Artist - The Fact Remains
DYEAR=2006
DGENRE=Grime
TTITLE0=Faction G (By T-Star) - Introduction
TTITLE1=Faction G (Feat. Amy King)(By T-Star) - Fact Remains
TTITLE2=Faction G (By Agent-X) - Back!
TTITLE3=Faction G (Feat. Ears and Manga)(By T-Star) - 3 Options
TTITLE4=Faction G (By Blay-Z) - Usual Suspect
TTITLE5=Faction G (By Daft Punk) - Music 2 Feel Big 2
TTITLE6=Faction G (Feat. Ny)(By Scratcha - DVA) - Text Talker
TTITLE7=Faction G (By Mr Slash) - Kneck Of The Woods
TTITLE8=Faction G (Feat. Blay-Z)(By EJ) - Fresh
TTITLE9=Faction G (By Swiftee) - Bittersweet
TTITLE10=Faction G (Feat. Triple Threat and B-Live)(By R-Biz) - Fam'Lay 1st
TTITLE11=Faction G (He Won't Lose)(By Jammer) - Future's Brighter
TTITLE12=Faction G (By T-Star) - Outro
TTITLE13=Faction G (Feat B-Live)(By T-star and R-Biz) - Dirty Girls (Bonus)
TTITLE14=Faction G (By DVA) - Real Love (Bonus)
TTITLE15=Faction G (By T-Star, Remixed By R-Biz) - Bounds (The Legacy) (Bonus)
TTITLE16=Faction G (By T-Star, Remixed By R-Biz) - Bounds (The Legacy) (Instrumental) (Bonus)
EXTD=
EXTT0=
EXTT1=
EXTT2=
EXTT3=
EXTT4=
EXTT5=
EXTT6=
EXTT7=
EXTT8=
EXTT9=
EXTT10=
EXTT11=
EXTT12=
EXTT13=
EXTT14=
EXTT15=
EXTT16=
PLAYORDER=
